<?xml version="1.0" encoding="UTF-8" standalone="no"?>
<svg
   xmlns:dc="http://purl.org/dc/elements/1.1/"
   xmlns:cc="http://creativecommons.org/ns#"
   xmlns:rdf="http://www.w3.org/1999/02/22-rdf-syntax-ns#"
   xmlns:svg="http://www.w3.org/2000/svg"
   xmlns="http://www.w3.org/2000/svg"
   xmlns:sodipodi="http://sodipodi.sourceforge.net/DTD/sodipodi-0.dtd"
   xmlns:inkscape="http://www.inkscape.org/namespaces/inkscape"
   width="360.00015"
   height="332.76974"
   id="svg2"
   version="1.1"
   inkscape:version="0.91 r13725"
   sodipodi:docname="logo.svg">
  <defs
     id="defs12" />
  <sodipodi:namedview
     pagecolor="#ffffff"
     bordercolor="#666666"
     borderopacity="1"
     objecttolerance="10"
     gridtolerance="10"
     guidetolerance="10"
     inkscape:pageopacity="0"
     inkscape:pageshadow="2"
     inkscape:window-width="1366"
     inkscape:window-height="746"
     id="namedview10"
     showgrid="false"
     fit-margin-top="0"
     fit-margin-left="0"
     fit-margin-right="0"
     fit-margin-bottom="0"
     inkscape:zoom="0.39360392"
     inkscape:cx="183.87265"
     inkscape:cy="167.8061"
     inkscape:window-x="-8"
     inkscape:window-y="-8"
     inkscape:window-maximized="1"
     inkscape:current-layer="svg2" />
  <metadata
     id="metadata8">image/svg+xml<rdf:RDF>
  <cc:Work
     rdf:about="">
    <dc:format>image/svg+xml</dc:format>
    <dc:type
       rdf:resource="http://purl.org/dc/dcmitype/StillImage" />
    <dc:title></dc:title>
  </cc:Work>
</rdf:RDF>
</metadata>
  <g
     id="g5"
     transform="translate(-81.214859,-0.17698412)">
    <title
       id="title7">Layer 1</title>
    <path
       d="m 370.89249,197.25626 c 0,18.17749 14.73498,32.9125 32.91125,32.9125 18.17749,0 32.91251,-14.73501 32.91251,-32.9125 0,-18.17749 -14.73502,-32.91251 -32.91251,-32.91251 -18.17624,0 -32.91125,14.73502 -32.91125,32.91251 z m 10.14999,3.81124 c 0,-12.50875 10.14002,-22.64749 22.64749,-22.64749 12.50876,0 22.64878,10.13874 22.64878,22.64749 0,12.50876 -10.14002,22.64875 -22.64878,22.64875 -12.50747,0 -22.64749,-10.13999 -22.64749,-22.64875 z m -229.505,-3.81124 c 0,-18.17749 -14.73501,-32.91251 -32.91149,-32.91251 -18.17726,0 -32.912633,14.73502 -32.912633,32.91251 0,18.17749 14.735373,32.9125 32.912633,32.9125 18.17649,0 32.91149,-14.73501 32.91149,-32.9125 z m -10.15,3.81124 c 0,12.50876 -10.14,22.64875 -22.64775,22.64875 -12.50825,0 -22.648498,-10.13999 -22.648498,-22.64875 0,-12.50875 10.140248,-22.64749 22.648498,-22.64749 12.50775,0 22.64775,10.13874 22.64775,22.64749 z m 195.94751,-48.50875 c 1.71997,-3.28125 3.52875,-6.495 5.41998,-9.70124 4.14875,-7.035 8.69126,-14.03875 12.73502,-21.035 2.05875,-3.56125 5.5,-9.05249 6.66373,-10.53876 1.33502,-1.70498 11.475,-17.287504 11.48877,-17.656248 0.0137,-0.394989 0.005,-0.792511 0.005,-0.792511 -4.05877,0.70752 -14.59625,-1.628723 -20.87253,-3.183746 -2.06747,-0.601227 -4.54748,-1.197479 -7.31747,-1.777496 -23.94,-5.02002 -44.54376,-7.07251 -72.39502,-7.606262 -0.17123,-0.0025 -0.26248,-0.005 -0.26248,-0.005 0,0 -0.16376,0.320007 -0.53,1.040039 -5.32752,10.456238 -5.29126,13.44873 -4.80502,23.373744 l 4.56375,92.51999 c 0.15253,2.75625 0.255,4.42999 0.29001,4.67624 0.91751,6.49124 2.3175,12.64874 7.98877,16.07751 7.20749,4.35624 15.92498,-1.695 21.50372,-7.19751 12.22,-12.05374 28.32001,-44.13501 35.00125,-57.18374 0.23251,-0.45502 0.28501,-0.55625 0.52252,-1.01001 z m -152.22876,-0.0225 c 0.2375,0.45252 0.28874,0.55375 0.52251,1.00876 6.68124,13.04874 22.78,45.13001 35.00125,57.18375 5.57873,5.5025 14.29625,11.55374 21.50249,7.19751 5.6725,-3.42877 7.07126,-9.58627 7.99,-16.07752 0.035,-0.24624 0.13625,-1.92001 0.29001,-4.67623 l 4.5625,-92.51877 c 0.48749,-9.926241 0.52249,-12.918734 -4.80376,-23.374971 -0.3675,-0.720032 -0.53,-1.040039 -0.53,-1.040039 0,0 -0.0912,0.0025 -0.26249,0.005 -27.85126,0.533752 -48.45626,2.586243 -72.39626,7.606262 -2.76875,0.581238 -5.25,1.176239 -7.3175,1.777496 -6.275,1.554993 -16.81374,3.891235 -20.87125,3.183746 0,0 -0.01,0.398743 0.005,0.792511 0.0137,0.368744 10.15249,15.952475 11.48875,17.657495 1.16374,1.48499 4.605,6.97623 6.66374,10.53751 4.0425,6.99624 8.58626,14 12.73375,21.03497 1.89125,3.20627 3.70125,6.42001 5.42125,9.70252 z m 68.3625,-72.247462 c 5.45,-0.157532 10.05376,-0.16626 15.50499,-0.02631 0,0 -0.075,0.16626 -0.17623,0.393799 -4.32999,9.747467 -5.59751,15.609985 -5.42374,24.642493 l 1.88122,98.18374 c 0.085,2.2175 0.16877,3.92749 0.23752,4.6825 0.67624,7.38873 0.89374,10.93625 4.02249,16.46499 2.66126,4.70249 6.82627,7.76127 12.54502,8.67249 6.04623,0.96503 12.23999,-2.03748 16.97622,-5.71625 0.47876,-0.3725 0.95502,-0.76498 1.42753,-1.17624 14.09375,-12.24499 25.67874,-41.13125 33.66125,-57.8825 0.20123,-0.41498 0.40125,-0.82999 0.60248,-1.24375 2.0075,-4.13998 4.03375,-8.20126 6.11999,-12.23624 1.05252,-2.0375 2.81003,-5.29251 4.94751,-9.16125 4.99625,-9.04376 12.45002,-22.15875 17.935,-30.91501 4.595,-7.33624 10.19126,-16.067508 14.77249,-23.093753 2.33252,-3.993744 3.40003,-6.206268 3.72251,-10.578766 0.3175,-4.30249 -0.46875,-11.748718 -1.28998,-17.653748 -0.10001,-0.719971 -1.8725,-15.463749 -6.48251,-26.851261 -2.14374,-5.294981 -4.97876,-10.358702 -8.54874,-14.505003 -1.77002,-2.054993 -3.69126,-3.853699 -5.84125,-5.498718 C 351.48248,9.953761 338.6875,6.000026 328.95749,4.121242 322.44748,2.865016 315.61499,2.272487 306.81873,1.72372 290.51373,0.706264 275.87375,0.141262 261.215,0.178737 246.55625,0.141261 231.91625,0.706264 215.60999,1.72372 c -8.795,0.548767 -15.62751,1.141296 -22.13625,2.397522 -9.73,1.878784 -22.52624,5.83252 -31.10625,12.668763 -2.14875,1.64502 -4.07126,3.443726 -5.84124,5.498718 -3.57001,4.146301 -6.40502,9.210022 -8.54876,14.505003 -4.60875,11.387512 -6.3825,26.13129 -6.48249,26.851261 -0.82126,5.905029 -1.60752,13.351257 -1.29001,17.653748 0.32249,4.372498 1.39,6.585022 3.72375,10.578766 4.58,7.026245 10.17626,15.757509 14.77249,23.093749 5.48375,8.75626 12.9375,21.87125 17.93376,30.91501 2.1375,3.86874 3.89499,7.12375 4.9475,9.16125 2.08624,4.03498 4.1125,8.09626 6.12125,12.23624 0.19999,0.41376 0.40126,0.82877 0.60125,1.24375 7.9825,16.75125 19.56749,45.63751 33.66126,57.8825 0.47249,0.41126 0.94874,0.80374 1.42874,1.17624 4.735,3.67877 10.92876,6.68128 16.975,5.71625 5.71875,-0.91122 9.88375,-3.97 12.545,-8.67249 3.12999,-5.52874 3.34624,-9.07626 4.02251,-16.46499 0.0687,-0.75501 0.1525,-2.465 0.23749,-4.6825 l 1.88125,-98.18374 c 0.17374,-9.032503 -1.09375,-14.895022 -5.42375,-24.642489 -0.0775,-0.172546 -0.13875,-0.311279 -0.16376,-0.367493 z m 7.63625,186.036222 c -0.37375,-0.001 -0.75,-0.002 -1.12625,-0.007 -36.71249,-0.39249 -57.75,-15.155 -73.8225,-46.88376 -6.60499,-13.04123 -13.2125,-29.70749 -18.73875,-42.75248 -12.99374,-30.67376 -22.0525,-44.77502 -41.0175,-72.07501 -0.0937,-0.13501 -0.095,-0.13626 -0.095,-0.13626 l 2.395,-11.171233 c 1.62375,-7.574982 4.89501,-24.699982 7.14749,-34.76749 1.80376,-8.059998 6.02751,-21.726257 9.71501,-30.132505 0.9175,-2.091248 2.04375,-4.540039 2.7175,-5.993774 l -67.065121,0 0,127.931272 1.637123,-0.77499 c 9.782249,-5.11877 18.675378,-8.00751 29.508868,-10.30002 1.791,-0.37875 3.37838,-0.7525 4.34763,-1.13626 0.478,-0.18997 1.14838,-0.57623 1.394,-1.26373 0.0747,-0.20999 0.0981,-0.28876 0.233,-0.78125 l 4.86225,-17.83875 c 0,0 0.8105,-2.9725 0.83063,-3.04626 17.70537,18.70627 28.27912,41.37124 35.90037,57.92627 7.6175,16.54498 14.7875,33.0625 23.08125,49.29248 17.24374,33.75125 39.38499,46.58127 76.96875,46.79877 0.41376,0.002 0.82626,0.004 1.23624,0.002 0.41,10e-4 0.82251,0 1.23626,-0.002 37.58374,-0.2175 59.72501,-13.04752 76.96875,-46.79877 8.29377,-16.22998 15.46375,-32.7475 23.08124,-49.29248 7.62125,-16.55503 18.19501,-39.22 35.90003,-57.92627 0.0212,0.0738 0.83123,3.04626 0.83123,3.04626 l 4.86249,17.83875 c 0.13501,0.49249 0.1575,0.57126 0.23251,0.78125 0.24625,0.6875 0.91626,1.07376 1.39374,1.26373 0.97,0.38376 2.5575,0.75751 4.34751,1.13626 10.83377,2.29251 19.7275,5.18125 29.51001,10.30002 l 1.63626,0.77499 0,-127.931272 -67.06501,0 c 0.67374,1.453735 1.79874,3.902527 2.7175,5.993774 3.68625,8.406248 7.91123,22.072508 9.715,30.132505 2.2525,10.067509 5.52499,27.192509 7.14749,34.76749 L 396.12497,104.47 c 0,0 -0.001,0.001 -0.095,0.13626 -18.965,27.29999 -28.02374,41.40125 -41.01749,72.07501 -5.52624,13.04499 -12.13251,29.71125 -18.73877,42.75248 -16.07248,31.72876 -37.10873,46.49127 -73.82248,46.88375 -0.41375,0.005 -0.82376,0.008 -1.23501,0.008 -0.0363,0 -0.0737,0 -0.11124,0 z m 146.51877,66.61875 c 0.0162,0 0.0325,-10e-4 0.0475,-10e-4 0.0275,10e-4 0.05,0 0.0763,-0.002 0.27874,-0.0288 0.48123,-0.27749 0.45373,-0.55624 -0.0288,-0.2775 -0.27749,-0.48123 -0.55624,-0.45249 -0.01,0 -0.0187,0 -0.0288,0 -2.69626,0.28376 -4.23502,-1.415 -6.07126,-4.445 -4.75,-7.83875 -8.29126,-23.27124 -8.74374,-32.24875 13.22125,-4.07752 31.09625,-10.64749 45.33999,-19.20001 2.60752,-1.56501 2.78375,-1.36124 2.7475,-3.91001 l -0.0275,-1.87625 c -59.74749,20.39874 -96.79873,23.56876 -179.64624,24.04749 -82.8475,-0.47876 -119.89874,-3.64875 -179.646113,-24.04749 l -0.02737,1.87622 c -0.03663,2.54877 0.140121,2.345 2.747627,3.91001 14.243622,8.55252 32.118126,15.12249 45.339616,19.20001 -0.4525,8.97751 -3.99375,24.41 -8.744,32.24875 -1.83637,3.03 -3.375,4.72876 -6.07124,4.445 -0.01,0 -0.0186,0 -0.0279,0 -0.27875,-0.0287 -0.52775,0.17499 -0.55612,0.45249 -0.0284,0.27875 0.17424,0.52749 0.45262,0.55624 0.0269,0.002 0.0498,0.004 0.0766,0.002 0.0322,0.001 0.0665,0.003 0.10263,0.004 l 292.7624,-0.002"
       id="path38"
       inkscape:connector-curvature="0"
       style="fill:#000000;fill-rule:evenodd" />
  </g>
</svg>
